<svg width="79" height="79" viewBox="0 0 79 79" fill="none" xmlns="http://www.w3.org/2000/svg">
<circle cx="39.5" cy="39.5" r="39.5" fill="#A7C1B4"/>
<g clip-path="url(#clip0)">
<path d="M60.4544 33.512L60.4511 33.5093C60.4128 33.471 60.3728 33.4348 60.3312 33.4008C58.4396 31.8537 55.649 32.1259 54.1116 34.0034C51.7935 36.8221 47.8662 41.5561 46.6863 42.9774L39.0752 44.7891L38.2944 43.9235L43.4372 41.8278C45.5427 40.986 46.6436 38.6138 45.9444 36.428C45.2392 34.2243 42.9291 32.9726 40.713 33.5688L28.0541 36.7471C27.0833 36.9707 26.154 37.489 25.4369 38.2057C25.4083 38.2348 25.3802 38.2645 25.3537 38.2953L14.3921 51.0395C13.8391 51.6815 13.8753 52.6421 14.4747 53.241L23.4924 62.2587C23.797 62.5638 24.2095 62.7334 24.6378 62.7334C24.675 62.7334 24.7128 62.7322 24.7501 62.7296C25.2182 62.6967 25.6491 62.4623 25.931 62.0881L30.8114 55.6148L48.0579 53.4327C49.3398 53.2728 50.5132 52.6324 51.3885 51.5978L61.0731 39.5329C62.5193 37.6618 62.2434 35.0348 60.4544 33.512ZM58.5272 37.5274L48.889 49.5367C48.5666 49.9168 48.1293 50.1587 47.6535 50.2181L29.726 52.4861C29.2924 52.5412 28.8987 52.7696 28.6358 53.1184L24.4654 58.6501L17.828 52.0126L27.7647 40.4612C28.0488 40.1907 28.4182 39.9888 28.8123 39.8975L41.5289 36.7046C42.0883 36.555 42.685 36.8731 42.8583 37.4158C43.0419 37.9898 42.7676 38.607 42.2244 38.8241L34.9346 41.7941C34.4459 41.9933 34.0847 42.4183 33.967 42.9324C33.8487 43.4469 33.9891 43.9869 34.3428 44.379L37.3127 47.6729C37.7097 48.1125 38.3144 48.3026 38.8911 48.1638L47.9634 46.0038C48.3047 45.9228 48.6098 45.7328 48.8339 45.4633C48.8339 45.4633 53.859 39.4112 56.6167 36.0583C57.0049 35.5848 57.7307 35.5033 58.2302 35.8699C58.2631 35.9018 58.2977 35.9325 58.3333 35.9617C58.8236 36.3627 58.8987 37.0457 58.5272 37.5274Z" fill="#FFF5F0"/>
<path d="M57.7611 26.0711C56.6859 20.7555 52.8197 17.3206 47.9117 17.3206C45.5947 17.3206 43.1145 18.1478 40.6819 19.723C38.2022 18.0922 35.7524 17.2666 33.3862 17.2666C28.4723 17.2666 24.606 20.7241 23.5331 26.0878C22.6988 30.452 23.9661 35.3042 27.01 39.4001L29.6106 37.4674C27.1061 34.0979 26.0511 30.1722 26.713 26.7099C27.4782 22.8835 30.035 20.5066 33.3862 20.5066C35.3204 20.5066 37.5089 21.3678 39.7132 22.9975C40.2845 23.4192 41.062 23.4209 41.6344 23.0008C43.8111 21.4047 45.9818 20.5606 47.9117 20.5606C51.2607 20.5606 53.8175 22.9182 54.5838 26.7041C55.1383 29.5293 54.5325 32.6806 52.8769 35.5777L55.6897 37.1857C57.7319 33.6126 58.4684 29.6685 57.7611 26.0711Z" fill="#FFF5F0"/>
</g>
<defs>
<clipPath id="clip0">
<rect width="48" height="48" fill="white" transform="translate(14 16)"/>
</clipPath>
</defs>
</svg>
