<svg width="79" height="79" viewBox="0 0 79 79" fill="none" xmlns="http://www.w3.org/2000/svg">
<circle cx="39.5" cy="39.5" r="39.5" fill="#A7C1B4"/>
<g clip-path="url(#clip0)">
<path d="M59.7411 57.4804H58.4709V28.3799C58.4709 27.6842 57.9068 27.1201 57.2111 27.1201H52.1511C51.4553 27.1201 50.8913 27.6842 50.8913 28.3799V57.4804H48.3508V33.4399C48.3508 32.7442 47.7867 32.1802 47.091 32.1802H42.031C41.3352 32.1802 40.7712 32.7442 40.7712 33.4399V57.4804H38.2307V38.5C38.2307 37.8043 37.6666 37.2402 36.9709 37.2402H31.9109C31.2151 37.2402 30.6511 37.8043 30.6511 38.5V57.4804H28.1106V43.56C28.1106 42.8643 27.5465 42.3003 26.8508 42.3003H21.7908C21.095 42.3003 20.531 42.8643 20.531 43.56V57.4804H19.2607C18.565 57.4804 18.001 58.0444 18.001 58.7402C18.001 59.4359 18.565 59.9999 19.2607 59.9999H59.7411C60.4369 59.9999 61.0009 59.4359 61.0009 58.7402C61.0009 58.0444 60.4369 57.4804 59.7411 57.4804Z" fill="#FFF5F0"/>
<path d="M19.2584 34.7008C19.2999 34.7008 19.3418 34.6987 19.3838 34.6945C25.8196 34.0585 31.8522 32.8521 37.3137 31.1088C41.7005 29.7085 45.7329 27.96 49.2989 25.9118C52.3312 24.1701 54.5091 22.5098 55.9506 21.2587V23.3208C55.9506 24.0165 56.5146 24.5806 57.2103 24.5806C57.906 24.5806 58.4701 24.0165 58.4701 23.3208V18.2607C58.4701 17.565 57.906 17.001 57.2103 17.001H52.1503C51.4545 17.001 50.8905 17.565 50.8905 18.2607C50.8905 18.9565 51.4545 19.5205 52.1503 19.5205H54.1017C52.7439 20.6784 50.7066 22.2101 47.8996 23.8097C42.539 26.8644 33.1974 30.7976 19.1361 32.1872C18.4437 32.2556 17.9379 32.8723 18.0063 33.5647C18.0706 34.2151 18.6184 34.7008 19.2584 34.7008Z" fill="#FFF5F0"/>
</g>
<defs>
<clipPath id="clip0">
<rect width="43" height="43" fill="white" transform="translate(18 17)"/>
</clipPath>
</defs>
</svg>
