<svg width="79" height="79" viewBox="0 0 79 79" fill="none" xmlns="http://www.w3.org/2000/svg">
<circle cx="39.5" cy="39.5" r="39.5" fill="#A7C1B4"/>
<g clip-path="url(#clip0)">
<path d="M25.1746 38.969L17.2756 31.07C15.1657 28.9601 14.0037 26.1549 14.0037 23.1709C14.0037 17.0113 19.015 12 25.1746 12C31.3344 12 36.3456 17.0113 36.3456 23.1709C36.3456 26.1549 35.1836 28.9601 33.0736 31.07L25.1746 38.969ZM25.1746 15.0465C20.6948 15.0465 17.0502 18.6912 17.0502 23.1709C17.0502 25.3411 17.8953 27.3813 19.4298 28.9159L25.1746 34.6607L30.9195 28.9159C32.4541 27.3813 33.2992 25.3411 33.2992 23.1709C33.2992 18.6912 29.6545 15.0465 25.1746 15.0465Z" fill="#FFF5F0"/>
<path d="M25.175 28.249C22.3752 28.249 20.0973 25.9711 20.0973 23.1712C20.0973 20.3714 22.3752 18.0935 25.175 18.0935C27.9749 18.0935 30.2527 20.3714 30.2527 23.1712C30.2527 25.9711 27.9749 28.249 25.175 28.249ZM25.175 21.14C24.055 21.14 23.1438 22.0512 23.1438 23.1712C23.1438 24.2912 24.055 25.2024 25.175 25.2024C26.295 25.2024 27.2062 24.2912 27.2062 23.1712C27.2062 22.0512 26.295 21.14 25.175 21.14Z" fill="#FFF5F0"/>
<path d="M57.8736 63.9999L52.1286 58.2551C50.5942 56.7206 49.7491 54.6803 49.7491 52.5102C49.7491 48.0304 53.3938 44.3857 57.8736 44.3857C62.3534 44.3857 65.998 48.0304 65.998 52.5102C65.998 54.6802 65.153 56.7205 63.6185 58.2551L57.8736 63.9999ZM54.2829 56.1008L57.8736 59.6914L61.4642 56.1008C62.4233 55.1417 62.9515 53.8664 62.9515 52.5101C62.9515 49.7101 60.6735 47.4322 57.8736 47.4322C55.0736 47.4322 52.7957 49.7101 52.7957 52.5101C52.7957 53.8665 53.3239 55.1418 54.2829 56.1008Z" fill="#FFF5F0"/>
<path d="M50.4603 63.9939H33.4553C28.0494 63.9939 23.6514 59.5958 23.6514 54.1899C23.6514 48.7839 28.0494 44.3858 33.4553 44.3858H39.108C40.7754 44.3858 42.1318 43.0294 42.1318 41.362C42.1318 39.6947 40.7754 38.3383 39.108 38.3383H33.1976V35.2917H39.108C42.4552 35.2917 45.1783 38.0148 45.1783 41.362C45.1783 44.7092 42.4552 47.4323 39.108 47.4323H33.4553C29.7293 47.4323 26.6979 50.4637 26.6979 54.1898C26.6979 57.9159 29.7292 60.9473 33.4553 60.9473H50.4604V63.9939H50.4603Z" fill="#FFF5F0"/>
</g>
<defs>
<clipPath id="clip0">
<rect width="52" height="52" fill="white" transform="translate(14 12)"/>
</clipPath>
</defs>
</svg>
